<svg version="1.0" xmlns="http://www.w3.org/2000/svg" width="666.667" height="666.667" viewBox="0 0 500 500">
  <path d="M0 250v250h500V0H0v250zm450-27.5V284H350v11h100v7H350v10h100v8H350v10h100v7H50v-7h100v-10H50v-8h100v-10H50v-7h100v-11H50V161h400v61.5z" fill="#f0f0f0" />
  <path d="M58 222v54h384V168H58v54zm151-40c3 .6 7.7 2.1 10.5 3.4 22 10 27.2 46.7 9.5 66-12.6 13.6-38.5 14.9-53.8 2.7-14.9-11.8-17.5-41.9-5.2-58.9 7.7-10.7 23.7-16.1 39-13.2zm-64.3 2.5c9.1 2.7 13.4 9 14 20.5.4 6.7.2 8.1-2.4 13-5.1 9.9-12.5 13-30.9 13H116v30H98v-78h20.8c15.6 0 22.1.4 25.9 1.5zM265 222v39h-18v-78h18v39zm42.7-15.6 14.8 23.4.3-23.4.2-23.4h18v78h-9.2l-9.3-.1-13.5-21.6c-7.4-11.9-14.2-22.6-15.2-23.7-1.7-2-1.7-1-1.8 21.6V261h-18v-78h18.9l14.8 23.4zM407 191v8h-22v62h-18v-62h-22v-16h62v8z" fill="#f0f0f0" />
  <path d="M196.5 197.9c-7.2 1.8-11.7 6.5-14.1 14.8-3.3 11.2 0 24.5 7.3 30.1 2.9 2.1 4.8 2.7 10.2 3 8.9.4 13.4-2.2 17.4-9.9 4.8-9.3 3.9-23.8-1.9-31.5-3.8-5.1-12.4-8-18.9-6.5zM116 207v8h9.9c8.4 0 10.2-.3 12.5-2.1 2-1.6 2.6-2.9 2.6-5.9 0-3-.6-4.3-2.6-5.9-2.3-1.8-4.1-2.1-12.5-2.1H116v8zM211.7 292.6c-.4.4-.7 6.5-.7 13.6V319h7v-10h9v10h7.1l-.3-13.3-.3-13.2h-3c-2.9 0-3 .2-3.3 5.2l-.3 5.3h-8.8l-.3-5.3c-.3-4.7-.5-5.2-2.8-5.5-1.4-.2-2.9 0-3.3.4zM240 303c0 10.4.2 11.2 2.4 13.5 3 3 8.4 4.0 13 2.5 5.7-1.9 6.6-4.0 6.6-16.2V292h-6v9.4c0 10-1 12.6-5 12.6s-5-2.6-5-12.6V292h-6v11zM268.8 292.6c-.5.4-.8 6.5-.8 13.6V319h7.5c8.6 0 12-1.3 13.3-4.9 1-2.7-.1-7-2-8.2-.7-.4-.7-1.3.1-2.7 1.7-3.1 1.3-6.7-.8-8.6-2-1.9-16-3.5-17.3-2zm12.1 6.3c2.3 1.5.5 4.1-2.9 4.1-2.5 0-3-.4-3-2.5 0-1.9.5-2.5 2.3-2.5 1.2 0 2.8.4 3.6.9zm1.6 11.6c0 1.6-.8 2.1-3.7 2.3-3.5.3-3.8.1-3.8-2.3s.3-2.6 3.8-2.3c2.9.2 3.7.7 3.7 2.3z" fill="#f0f0f0" />
</svg>
